<svg id="svg" version="1.1" xmlns="http://www.w3.org/2000/svg" xmlns:xlink="http://www.w3.org/1999/xlink" width="128" height="128" viewBox="0, 0, 400,400">
<g id="svgg" transform="rotate(-45 320 220), scale(.825)">
<path id="path0" d="M181.963 163.503 C 178.535 165.808,164.532 179.534,164.181 180.933 C 163.624 183.154,164.330 183.994,180.585 200.438 C 205.327 225.470,212.702 234.341,232.867 263.323 C 240.736 274.633,251.301 287.953,260.310 297.922 C 268.364 306.835,341.645 379.793,344.366 381.608 C 364.953 395.338,390.724 378.623,387.203 353.823 C 385.901 344.651,386.608 345.474,341.151 300.183 C 292.609 251.818,288.668 248.308,261.659 229.384 C 235.025 210.723,226.175 203.275,200.975 178.319 C 184.832 162.332,184.310 161.925,181.963 163.503 " stroke="none" fill="#e77d20" fill-rule="evenodd"></path>
<path id="path1" d="M136.338 0.411 C 135.974 0.623,134.534 1.081,133.138 1.429 C 131.742 1.776,129.880 2.563,129.000 3.177 C 128.120 3.791,126.590 4.699,125.600 5.196 C 122.418 6.793,120.268 8.887,63.178 65.977 C 6.533 122.623,4.818 124.413,1.711 130.169 L -0.000 133.339 -0.000 149.898 L -0.000 166.458 1.060 168.329 C 5.453 176.086,5.793 176.458,37.072 207.687 C 61.645 232.222,68.719 238.800,70.529 238.800 C 70.711 238.800,72.062 239.507,73.530 240.372 C 76.243 241.970,79.358 242.800,82.638 242.800 C 83.568 242.800,85.470 243.158,86.864 243.595 C 89.916 244.552,92.704 244.618,94.705 243.782 C 95.519 243.442,97.959 242.994,100.127 242.788 C 104.981 242.325,106.985 241.805,108.573 240.594 C 109.248 240.078,110.692 239.275,111.782 238.808 C 115.123 237.376,118.739 234.089,137.301 215.616 C 147.146 205.817,155.426 197.750,155.701 197.690 C 156.253 197.568,178.756 219.989,182.985 224.874 C 184.449 226.565,185.786 228.005,185.957 228.074 C 186.240 228.189,193.535 236.390,197.400 240.939 C 198.280 241.975,199.596 243.492,200.324 244.311 C 201.052 245.130,201.928 246.340,202.271 247.000 C 202.613 247.660,203.221 248.560,203.621 249.000 C 204.021 249.440,204.765 250.379,205.274 251.087 C 205.783 251.795,207.303 253.786,208.651 255.512 C 209.999 257.238,211.375 259.179,211.710 259.826 C 212.044 260.473,212.697 261.344,213.159 261.763 C 213.622 262.182,214.000 262.741,214.000 263.006 C 214.000 263.271,214.685 264.278,215.522 265.244 C 216.359 266.210,217.538 267.810,218.143 268.800 C 218.747 269.790,219.907 271.531,220.721 272.669 C 221.534 273.807,223.370 276.391,224.800 278.411 C 227.458 282.165,228.749 283.878,231.577 287.400 C 236.659 293.730,238.739 296.371,239.768 297.800 C 240.401 298.680,241.130 299.580,241.387 299.800 C 241.644 300.020,243.535 302.090,245.588 304.400 C 250.251 309.646,251.762 311.179,291.800 351.313 C 329.077 388.679,334.212 393.653,336.980 395.076 C 338.069 395.636,339.599 396.513,340.380 397.024 C 341.161 397.535,342.700 398.158,343.800 398.408 C 344.900 398.658,346.430 399.124,347.200 399.445 C 351.649 401.295,375.885 399.662,379.694 397.255 C 380.412 396.801,381.892 395.951,382.982 395.367 C 385.254 394.148,390.316 390.232,391.188 389.018 C 391.512 388.568,392.202 387.772,392.722 387.248 C 394.109 385.852,397.754 380.421,398.391 378.800 C 398.694 378.030,399.180 377.045,399.471 376.611 C 400.444 375.159,400.223 342.255,399.226 340.200 C 398.799 339.320,398.248 338.042,398.002 337.361 C 397.521 336.032,395.420 333.135,392.200 329.361 C 391.100 328.072,373.910 310.805,354.000 290.991 C 318.230 255.393,312.075 249.344,306.600 244.407 C 305.060 243.018,303.620 241.675,303.400 241.423 C 303.180 241.170,301.470 239.715,299.600 238.189 C 297.730 236.662,296.110 235.313,296.000 235.190 C 295.890 235.067,294.270 233.804,292.400 232.384 C 290.530 230.964,287.616 228.680,285.924 227.308 C 284.232 225.936,282.226 224.464,281.465 224.037 C 280.705 223.610,278.448 222.032,276.448 220.530 C 274.449 219.029,271.955 217.210,270.906 216.488 C 267.657 214.253,266.534 213.461,263.971 211.600 C 262.608 210.610,260.544 209.170,259.384 208.400 C 258.225 207.630,256.479 206.370,255.506 205.600 C 254.532 204.830,251.230 202.321,248.168 200.025 C 245.105 197.728,242.311 195.568,241.958 195.225 C 240.143 193.459,237.135 190.703,235.377 189.195 C 227.470 182.411,199.600 154.981,199.600 153.983 C 199.600 153.636,206.935 145.977,215.900 136.961 C 234.618 118.137,234.386 118.390,235.985 115.167 C 236.647 113.832,237.541 112.293,237.971 111.746 C 238.402 111.199,238.976 109.727,239.248 108.476 C 239.521 107.224,240.074 105.767,240.479 105.237 C 243.260 101.595,243.459 68.004,240.747 59.931 C 239.988 57.673,239.864 56.086,239.593 45.200 C 239.286 32.875,239.039 30.839,237.606 28.800 C 237.220 28.250,236.595 26.731,236.218 25.424 C 235.842 24.116,234.967 22.226,234.275 21.224 C 233.583 20.221,232.725 18.829,232.367 18.131 C 231.269 15.985,225.175 10.037,222.260 8.265 C 220.753 7.349,218.991 6.264,218.344 5.854 C 217.698 5.444,216.410 4.940,215.484 4.736 C 213.463 4.289,211.600 3.513,211.600 3.118 C 211.600 1.959,207.113 1.487,193.600 1.225 C 184.340 1.046,179.430 0.800,178.674 0.479 C 177.254 -0.125,137.366 -0.189,136.338 0.411 M159.418 12.007 C 164.028 12.231,173.110 12.776,179.600 13.217 C 186.090 13.659,194.190 14.205,197.600 14.432 C 209.288 15.209,215.748 18.367,221.430 26.085 C 225.819 32.045,226.474 36.145,228.387 69.668 C 229.968 97.354,229.265 102.528,222.838 110.528 C 218.289 116.191,109.542 224.236,106.252 226.362 C 97.119 232.262,86.205 232.415,76.713 226.776 C 72.098 224.034,18.478 171.126,14.917 165.800 C 7.454 154.637,8.147 142.156,16.826 131.456 C 20.840 126.507,129.494 18.326,132.273 16.512 C 139.436 11.835,143.161 11.217,159.418 12.007 M186.011 162.263 C 186.555 162.627,193.210 169.066,200.800 176.571 C 227.236 202.712,234.810 209.090,262.600 228.614 C 289.777 247.707,292.789 250.399,342.935 300.383 C 386.603 343.911,386.448 343.732,388.187 352.483 C 393.463 379.026,363.709 397.813,342.400 381.393 C 340.402 379.853,270.848 310.351,261.347 300.400 C 251.617 290.209,241.044 276.846,228.600 259.013 C 211.368 234.318,201.173 222.389,174.488 195.695 C 159.442 180.644,159.486 182.753,173.935 169.151 C 182.514 161.075,183.446 160.544,186.011 162.263 " stroke="none" fill="#090706" fill-rule="evenodd"></path>
<path id="path2" d="M138.200 19.345 C 134.720 20.976,133.194 22.453,78.966 76.654 C 11.401 144.185,16.421 138.640,15.596 146.643 C 14.399 158.242,14.717 158.727,40.547 184.696 C 65.892 210.178,63.667 208.776,72.350 204.736 C 80.495 200.946,82.938 199.738,86.200 197.889 C 143.866 165.187,170.985 96.407,151.135 33.200 C 146.493 18.417,144.571 16.359,138.200 19.345 " stroke="none" fill="#ebf3fb" fill-rule="evenodd"></path>
<path id="path3" d="M141.109 16.622 C 138.404 17.278,135.618 18.634,133.400 20.375 C 130.889 22.347,20.098 133.180,18.574 135.245 C 10.548 146.121,12.064 157.639,23.066 169.380 C 33.095 180.082,60.518 207.043,63.800 209.426 C 65.560 210.704,69.377 214.060,72.281 216.883 C 77.060 221.528,77.934 222.196,81.475 223.908 L 85.389 225.800 91.232 225.800 L 97.075 225.800 101.038 223.854 L 105.000 221.908 161.128 165.854 C 191.998 135.024,218.118 108.720,219.173 107.400 C 223.968 101.399,225.333 95.161,224.249 84.200 C 223.459 76.221,222.908 65.668,222.576 52.200 C 222.291 40.602,221.943 38.201,219.813 33.145 C 215.502 22.910,206.460 18.414,190.171 18.403 C 181.738 18.398,164.943 17.633,154.655 16.786 C 143.701 15.884,144.132 15.889,141.109 16.622 M145.299 19.192 C 146.457 20.103,148.751 25.609,151.135 33.200 C 169.854 92.805,146.743 158.216,94.846 192.512 C 87.052 197.663,84.077 199.279,72.350 204.736 C 67.382 207.047,65.181 207.456,63.104 206.451 C 59.288 204.603,20.099 164.455,17.864 160.103 C 13.165 150.952,14.819 141.520,22.576 133.236 C 28.535 126.872,132.109 23.532,134.166 21.898 C 138.409 18.528,143.027 17.405,145.299 19.192 " stroke="none" fill="#ccd4dc" fill-rule="evenodd"></path>
<path id="path4" d="M147.315 13.496 C 148.588 13.576,150.568 13.575,151.715 13.494 C 152.862 13.414,151.820 13.349,149.400 13.350 C 146.980 13.351,146.042 13.416,147.315 13.496 M154.600 13.841 C 156.745 14.194,182.456 15.635,184.200 15.500 L 186.200 15.344 183.800 15.268 C 182.480 15.226,176.000 14.837,169.400 14.403 C 158.769 13.705,152.276 13.458,154.600 13.841 M138.176 15.142 C 133.265 17.080,132.498 17.811,74.869 75.353 C 21.286 128.857,16.090 134.233,14.049 138.284 C 12.683 140.994,13.092 140.835,14.577 138.078 C 16.971 133.636,18.267 132.297,75.283 75.353 C 133.601 17.108,133.253 17.437,138.800 15.323 C 140.670 14.610,141.930 14.027,141.600 14.027 C 141.270 14.027,139.729 14.529,138.176 15.142 M188.313 15.895 C 189.476 15.976,191.276 15.976,192.313 15.893 C 193.351 15.811,192.400 15.745,190.200 15.746 C 188.000 15.747,187.151 15.814,188.313 15.895 M196.900 16.291 C 197.725 16.378,199.075 16.378,199.900 16.291 C 200.725 16.205,200.050 16.134,198.400 16.134 C 196.750 16.134,196.075 16.205,196.900 16.291 M207.693 18.156 C 214.928 20.908,219.369 25.214,222.594 32.602 C 223.362 34.361,223.992 35.551,223.995 35.246 C 224.048 29.285,210.836 16.655,204.713 16.813 C 204.431 16.821,205.772 17.425,207.693 18.156 M224.509 39.600 C 224.509 40.590,224.587 40.995,224.682 40.500 C 224.778 40.005,224.778 39.195,224.682 38.700 C 224.587 38.205,224.509 38.610,224.509 39.600 M224.946 46.200 C 224.947 48.400,225.014 49.249,225.095 48.087 C 225.176 46.924,225.176 45.124,225.093 44.087 C 225.011 43.049,224.945 44.000,224.946 46.200 M225.304 53.400 C 225.278 55.160,225.671 62.630,226.176 70.000 C 226.682 77.370,227.120 82.568,227.148 81.552 C 227.177 80.535,226.843 74.145,226.407 67.352 C 225.971 60.558,225.555 53.920,225.483 52.600 C 225.372 50.574,225.344 50.698,225.304 53.400 M227.363 90.000 C 227.363 93.630,227.423 95.115,227.498 93.300 C 227.572 91.485,227.572 88.515,227.498 86.700 C 227.423 84.885,227.363 86.370,227.363 90.000 M226.625 98.206 C 226.043 101.310,223.564 106.276,221.023 109.427 C 216.585 114.932,107.759 223.204,105.112 224.749 C 98.287 228.730,92.262 229.580,83.600 227.785 C 82.626 227.583,82.624 227.588,83.506 227.978 C 88.848 230.340,98.332 229.099,105.112 225.151 C 107.577 223.715,217.654 114.293,221.685 109.271 C 224.258 106.065,228.273 96.800,227.089 96.800 C 226.979 96.800,226.770 97.433,226.625 98.206 M11.701 147.000 C 11.705 147.880,11.787 148.193,11.883 147.695 C 11.979 147.198,11.975 146.478,11.875 146.095 C 11.775 145.713,11.696 146.120,11.701 147.000 M11.803 153.400 C 11.968 155.698,13.087 160.246,13.408 159.925 C 13.493 159.840,13.300 158.874,12.979 157.779 C 12.657 156.683,12.223 154.710,12.013 153.393 L 11.630 151.000 11.803 153.400 M14.600 162.400 C 14.941 163.060,15.311 163.600,15.421 163.600 C 15.531 163.600,15.341 163.060,15.000 162.400 C 14.659 161.740,14.289 161.200,14.179 161.200 C 14.069 161.200,14.259 161.740,14.600 162.400 M15.985 164.686 C 16.709 166.184,22.590 172.272,41.210 190.800 C 71.888 221.327,77.314 226.243,81.600 227.391 C 82.150 227.538,81.340 226.999,79.800 226.193 C 78.260 225.386,76.190 224.078,75.200 223.286 C 70.323 219.381,19.256 168.708,16.460 165.000 C 15.918 164.280,15.727 164.154,15.985 164.686 " stroke="none" fill="#747c7c" fill-rule="evenodd"></path>
<path id="path5" d="M143.000 14.008 C 140.528 14.502,136.035 16.298,133.810 17.682 C 131.437 19.157,20.099 130.148,17.331 133.797 C 13.452 138.912,11.875 143.625,11.908 150.000 C 11.956 159.121,13.946 162.745,25.193 174.200 C 40.942 190.240,71.970 220.697,75.200 223.288 C 83.861 230.234,96.543 230.512,106.292 223.969 C 108.773 222.304,217.664 113.590,221.027 109.420 C 223.586 106.248,225.537 102.358,226.653 98.200 C 227.411 95.378,227.334 87.875,226.401 73.793 C 225.964 67.190,225.344 56.559,225.022 50.170 C 224.212 34.068,223.018 30.179,217.052 24.213 C 210.194 17.355,207.959 16.787,183.200 15.598 C 178.250 15.360,169.070 14.815,162.800 14.387 C 150.868 13.571,145.678 13.472,143.000 14.008 M159.000 14.986 C 168.102 15.680,178.793 16.273,191.800 16.805 C 210.717 17.579,218.168 22.067,222.847 35.508 C 223.508 37.408,223.741 39.853,224.210 49.800 C 224.817 62.687,225.311 71.136,226.196 83.791 C 227.059 96.142,225.899 101.722,221.173 107.949 C 216.530 114.067,107.048 222.785,103.600 224.702 C 96.211 228.810,86.574 228.931,79.334 225.006 C 73.407 221.793,18.934 168.198,15.702 162.400 C 11.366 154.621,11.441 144.723,15.893 137.044 C 17.736 133.866,119.922 30.569,130.260 21.435 C 137.874 14.707,142.308 13.712,159.000 14.986 " stroke="none" fill="#858d8d" fill-rule="evenodd"></path>
<path id="path6" d="M143.200 11.994 C 140.449 12.355,135.515 14.395,132.273 16.512 C 129.494 18.326,20.840 126.507,16.826 131.456 C 8.147 142.156,7.454 154.637,14.917 165.800 C 18.478 171.126,72.098 224.034,76.713 226.776 C 86.205 232.415,97.119 232.262,106.252 226.362 C 109.542 224.236,218.289 116.191,222.838 110.528 C 229.265 102.528,229.968 97.354,228.387 69.668 C 226.474 36.145,225.819 32.045,221.430 26.085 C 215.748 18.367,209.288 15.209,197.600 14.432 C 194.190 14.205,186.090 13.659,179.600 13.217 C 157.261 11.698,147.861 11.382,143.200 11.994 M163.062 14.002 C 169.848 14.443,181.716 15.149,189.435 15.570 C 207.857 16.576,210.504 17.366,217.092 23.830 C 223.374 29.992,224.516 33.640,225.411 50.400 C 225.746 56.670,226.375 67.290,226.809 74.000 C 228.307 97.150,227.610 101.867,221.588 109.344 C 217.333 114.627,107.667 223.663,105.112 225.151 C 96.023 230.444,85.411 230.422,77.109 225.093 C 73.543 222.803,30.992 181.300,19.758 169.154 C 10.659 159.316,8.914 147.121,15.072 136.400 C 16.755 133.470,127.378 22.188,132.400 18.372 C 139.103 13.280,143.130 12.706,163.062 14.002 M181.535 162.302 C 178.638 164.200,164.318 178.285,163.263 180.274 C 161.890 182.863,162.505 183.708,174.488 195.695 C 201.173 222.389,211.368 234.318,228.600 259.013 C 241.044 276.846,251.617 290.209,261.347 300.400 C 270.848 310.351,340.402 379.853,342.400 381.393 C 363.709 397.813,393.463 379.026,388.187 352.483 C 386.448 343.732,386.603 343.911,342.935 300.383 C 292.789 250.399,289.777 247.707,262.600 228.614 C 234.810 209.090,227.236 202.712,200.800 176.571 C 184.195 160.151,184.487 160.368,181.535 162.302 M185.049 163.219 C 185.655 163.449,192.822 170.244,200.975 178.319 C 226.175 203.275,235.025 210.723,261.659 229.384 C 288.668 248.308,292.609 251.818,341.151 300.183 C 386.608 345.474,385.901 344.651,387.203 353.823 C 390.724 378.623,364.953 395.338,344.366 381.608 C 341.645 379.793,268.364 306.835,260.310 297.922 C 251.301 287.953,240.736 274.633,232.867 263.323 C 212.702 234.341,205.327 225.470,180.585 200.438 C 170.527 190.263,164.342 183.710,164.178 183.053 C 163.566 180.616,165.096 178.776,176.365 168.400 C 182.713 162.555,182.943 162.418,185.049 163.219 " stroke="none" fill="#6c7474" fill-rule="evenodd"></path>
<path id="path7" d="M141.281 15.209 C 133.870 17.150,137.562 13.728,72.387 79.058 C 22.038 129.526,17.627 134.053,15.893 137.044 C 11.441 144.723,11.366 154.621,15.702 162.400 C 18.934 168.198,73.407 221.793,79.334 225.006 C 86.574 228.931,96.211 228.810,103.600 224.702 C 107.048 222.785,216.530 114.067,221.173 107.949 C 225.899 101.722,227.059 96.142,226.196 83.791 C 225.311 71.136,224.817 62.687,224.210 49.800 C 223.741 39.853,223.508 37.408,222.847 35.508 C 218.168 22.067,210.717 17.579,191.800 16.805 C 178.793 16.273,168.102 15.680,159.000 14.986 C 148.916 14.216,144.876 14.267,141.281 15.209 M155.200 15.585 C 161.603 16.199,172.728 16.813,187.600 17.371 L 201.800 17.904 205.760 19.222 C 213.903 21.933,218.672 26.655,221.885 35.186 C 222.954 38.025,223.107 39.913,223.995 61.200 C 224.229 66.810,224.786 76.059,225.233 81.753 C 226.338 95.841,225.379 101.135,220.586 107.400 C 219.408 108.940,193.099 135.514,162.122 166.454 L 105.800 222.708 102.000 224.566 C 91.138 229.877,81.767 227.647,71.000 217.189 C 67.920 214.197,64.050 210.654,62.400 209.314 C 55.984 204.105,17.919 165.244,16.288 162.238 C 10.852 152.218,12.286 141.256,20.206 132.293 C 24.915 126.965,131.204 21.072,133.460 19.461 C 138.933 15.554,144.509 14.560,155.200 15.585 " stroke="none" fill="#a4acb4" fill-rule="evenodd"></path>
<path id="path8" d="M141.244 15.833 C 138.228 16.644,135.862 17.747,133.460 19.461 C 131.204 21.072,24.915 126.965,20.206 132.293 C 12.286 141.256,10.852 152.218,16.288 162.238 C 17.919 165.244,55.984 204.105,62.400 209.314 C 64.050 210.654,67.920 214.197,71.000 217.189 C 81.767 227.647,91.138 229.877,102.000 224.566 L 105.800 222.708 162.122 166.454 C 193.099 135.514,219.408 108.940,220.586 107.400 C 225.379 101.135,226.338 95.841,225.233 81.753 C 224.786 76.059,224.229 66.810,223.995 61.200 C 223.107 39.913,222.954 38.025,221.885 35.186 C 218.672 26.655,213.903 21.933,205.760 19.222 L 201.800 17.904 187.600 17.371 C 172.728 16.813,161.603 16.199,155.200 15.585 C 149.709 15.058,143.728 15.164,141.244 15.833 M154.655 16.786 C 164.943 17.633,181.738 18.398,190.171 18.403 C 206.460 18.414,215.502 22.910,219.813 33.145 C 221.943 38.201,222.291 40.602,222.576 52.200 C 222.908 65.668,223.459 76.221,224.249 84.200 C 225.333 95.161,223.968 101.399,219.173 107.400 C 218.118 108.720,191.998 135.024,161.128 165.854 L 105.000 221.908 101.038 223.854 L 97.075 225.800 91.232 225.800 L 85.389 225.800 81.475 223.908 C 77.934 222.196,77.060 221.528,72.281 216.883 C 69.377 214.060,65.560 210.704,63.800 209.426 C 60.518 207.043,33.095 180.082,23.066 169.380 C 12.064 157.639,10.548 146.121,18.574 135.245 C 20.098 133.180,130.889 22.347,133.400 20.375 C 138.831 16.112,141.334 15.689,154.655 16.786 " stroke="none" fill="#acb4bc" fill-rule="evenodd"></path>
</g>
</svg>